PathFileType	4	(X/Y/Z)	s05c0001.trc
DataRate	CameraRate	NumFrames	NumMarkers	Units	OrigDataRate	OrigDataStartFrame	OrigNumFrames
200	200	4	49	mm	200	0	2000
Frame#	Time	racr			lacr			c7			jug			rlel			rdr			llel			ldr			s2			lic			ric			lasi			rasi			rpsi			lpsi			rgt			lgt			rth1			rth2			rth3			rth4			rlfc			rmfc			rsh1			rsh2			rsh3			rsh4			rlmal			rmmal			rcal			rtoe			rmt5			rmt1			lth1			lth2			lth4			lth3			llfc			lmfc			lsh1			lsh2			lsh3			lsh4			llmal			lmmal			lcal			ltoe			lmt1			lmt5			
		X1	Y1	Z1	X2	Y2	Z2	X3	Y3	Z3	X4	Y4	Z4	X5	Y5	Z5	X6	Y6	Z6	X7	Y7	Z7	X8	Y8	Z8	X9	Y9	Z9	X10	Y10	Z10	X11	Y11	Z11	X12	Y12	Z12	X13	Y13	Z13	X14	Y14	Z14	X15	Y15	Z15	X16	Y16	Z16	X17	Y17	Z17	X18	Y18	Z18	X19	Y19	Z19	X20	Y20	Z20	X21	Y21	Z21	X22	Y22	Z22	X23	Y23	Z23	X24	Y24	Z24	X25	Y25	Z25	X26	Y26	Z26	X27	Y27	Z27	X28	Y28	Z28	X29	Y29	Z29	X30	Y30	Z30	X31	Y31	Z31	X32	Y32	Z32	X33	Y33	Z33	X34	Y34	Z34	X35	Y35	Z35	X36	Y36	Z36	X37	Y37	Z37	X38	Y38	Z38	X39	Y39	Z39	X40	Y40	Z40	X41	Y41	Z41	X42	Y42	Z42	X43	Y43	Z43	X44	Y44	Z44	X45	Y45	Z45	X46	Y46	Z46	X47	Y47	Z47	X48	Y48	Z48	X49	Y49	Z49	
0	0.0000	266.018250	1528.449341	346.429047	253.931915	1534.768555	0.195523	200.198242	1571.135864	169.330582	343.220612	1483.900513	168.738785	233.032898	1282.740967	532.385376	302.181610	1138.227661	741.166199	199.440033	1291.557251	-195.221451	232.534332	1156.071533	-432.398834	173.990341	1035.707764	179.324753	316.362701	1094.949463	30.089333	318.679993	1076.413574	315.779419	369.213470	1029.411255	62.353970	375.516083	1020.363892	283.703125	198.056854	1068.226074	222.226898	195.332947	1072.272583	133.433136	269.504303	923.099487	333.449951	242.302216	953.772095	9.604455	273.014465	824.853394	349.867188	285.129639	735.907898	349.203217	251.121262	655.767517	337.076965	321.734253	732.256531	340.534698	254.400101	507.309174	311.770538	247.167648	506.409180	210.817886	201.437302	409.937958	339.587799	216.829895	322.271057	330.660797	189.479645	241.871506	323.387665	248.796112	323.072388	307.610199	187.790710	109.086052	305.618927	212.165237	123.987625	227.921860	136.741516	62.373940	249.253357	424.665466	80.956619	309.531250	317.331940	44.762787	355.884216	350.588745	46.995872	242.644913	260.053528	821.718567	-11.773005	282.166840	739.535706	-6.688490	318.023499	739.885315	5.861340	257.335632	652.308777	5.289485	245.463516	516.549988	38.615822	238.280365	508.887177	138.514908	194.795181	399.743805	12.485187	210.208603	312.867828	23.355612	178.934341	230.655777	26.946020	242.139664	313.464600	43.586117	183.078033	108.791229	41.732574	211.837280	127.364120	114.971390	136.936768	57.288383	94.059265	425.053436	79.345818	39.349461	351.359467	48.069450	105.903152	312.934937	38.126713	-5.540035	
1	0.0050	266.079956	1528.434326	346.448700	253.966949	1534.750366	0.209152	200.238617	1571.134277	169.322235	343.271027	1483.910645	168.748291	233.019241	1282.945557	532.653687	302.236511	1138.228760	741.180969	199.453781	1291.562256	-195.218018	232.531433	1156.048340	-432.369965	174.049896	1035.665039	179.344040	316.369995	1094.956665	30.085407	318.697021	1076.410156	315.749390	369.225189	1029.397461	62.355728	375.512909	1020.365967	283.721527	198.057541	1068.245483	222.243881	195.358917	1072.266724	133.439941	269.526611	923.095886	333.437561	242.294922	953.776001	9.598477	273.019684	824.858398	349.872009	285.150665	735.902588	349.219086	251.124649	655.764343	337.055847	321.736816	732.252197	340.551453	254.405273	507.308289	311.769073	247.165283	506.415955	210.825180	201.421204	409.930481	339.584229	216.844391	322.272308	330.660583	189.478287	241.865784	323.403564	248.785934	323.074524	307.626709	187.803726	109.095886	305.617950	212.150970	123.983772	227.914688	136.732361	62.376999	249.246933	424.672455	80.940987	309.533783	317.342834	44.778149	355.885468	350.596161	46.990181	242.651321	260.058563	821.726318	-11.786988	282.182037	739.535950	-6.685548	318.050659	739.884277	5.871240	257.365723	652.331482	5.280620	245.469208	516.549194	38.619606	238.299255	508.887360	138.509430	194.798904	399.740540	12.482560	210.200684	312.854370	23.365482	178.925735	230.635391	26.937880	242.144119	313.448425	43.601357	183.081924	108.790703	41.739506	211.828720	127.370117	114.982971	136.941269	57.300926	94.049789	425.053375	79.342323	39.343357	351.363342	48.079983	105.906975	312.933502	38.106098	-5.522421	
2	0.0100	266.125549	1528.433228	346.468170	253.977142	1534.754639	0.230730	200.297073	1571.149902	169.330139	343.303650	1483.894287	168.767914	233.069992	1282.926270	532.670471	302.277161	1138.227417	741.203186	199.472794	1291.566650	-195.213577	232.538239	1156.053345	-432.368622	174.058716	1035.656616	179.344757	316.378845	1094.951172	30.079414	318.704010	1076.406128	315.754700	369.244263	1029.399170	62.362682	375.517883	1020.353088	283.727814	198.085495	1068.242188	222.239929	195.387253	1072.259155	133.451874	269.532013	923.088745	333.445251	242.318466	953.778748	9.594357	273.039215	824.854492	349.880798	285.138519	735.902649	349.222015	251.141006	655.763306	337.070679	321.739349	732.256653	340.569519	254.418304	507.308746	311.786530	247.165283	506.415955	210.825180	201.435577	409.937531	339.589691	216.844757	322.264435	330.651337	189.498886	241.859787	323.396362	248.792374	323.065094	307.629395	187.810532	109.088448	305.620392	212.152603	123.984459	227.910873	136.724609	62.380550	249.240051	424.659637	80.950325	309.533386	317.349762	44.775093	355.888916	350.586273	47.011589	242.635437	260.082275	821.720886	-11.776676	282.193481	739.517639	-6.683820	318.046051	739.880432	5.868711	257.361389	652.332520	5.277027	245.466736	516.559753	38.619576	238.296173	508.912354	138.523987	194.812073	399.735809	12.483658	210.209137	312.845825	23.369076	178.891724	230.649460	26.942310	242.146210	313.458893	43.600636	183.075592	108.791580	41.735493	211.829788	127.372536	114.974487	136.937607	57.289051	94.058464	425.043793	79.336479	39.352341	351.382690	48.080479	105.917587	312.945984	38.121750	-5.538804	
3	0.0150	266.164551	1528.429321	346.474243	254.006805	1534.755493	0.239989	200.073853	1571.653687	169.290649	343.323395	1483.888184	168.787277	233.096344	1283.309204	532.576782	302.327698	1138.234985	741.217102	199.489761	1291.571167	-195.217270	232.474091	1155.886719	-432.388275	174.634384	1035.429688	179.367493	316.534882	1094.873169	30.104021	318.716614	1076.392212	315.766663	369.259735	1029.395752	62.373245	375.534882	1020.357971	283.712128	198.098785	1068.238281	222.239182	195.399414	1072.259033	133.442047	269.548187	923.100647	333.444824	242.573166	953.635315	9.971741	273.042969	824.850098	349.882324	285.224945	735.928223	349.042267	251.145981	655.771362	337.070923	321.740356	732.245300	340.556915	254.406586	507.305969	311.781860	247.152145	506.414581	210.817841	201.422440	409.930115	339.578400	216.932480	322.286591	330.767426	189.452332	241.806168	323.339661	249.018051	323.112610	307.763641	187.303101	109.382034	305.672607	212.864182	124.310402	228.043213	136.732178	62.373947	249.247421	424.664856	80.969719	309.533173	317.342621	44.778301	355.885620	350.596161	46.990181	242.651321	260.241211	821.698914	-11.797106	282.484161	739.270996	-5.436304	318.468903	739.054688	6.881644	257.368011	652.319458	5.287180	245.475464	516.558777	38.626297	238.297089	508.902435	138.520844	194.803619	399.744598	12.491915	210.057770	313.727783	22.608139	178.896866	230.657410	26.942108	242.319260	313.464935	43.481056	183.141541	108.678688	41.742485	211.831924	127.353073	114.973076	136.940857	57.292046	94.062790	425.144653	79.194252	39.385376	351.388123	48.071304	105.913475	312.942749	38.111691	-5.524859	
